<svg width="36" height="35" viewBox="0 0 36 35" fill="none" xmlns="http://www.w3.org/2000/svg">
<path fill-rule="evenodd" clip-rule="evenodd" d="M13.7925 13.4924V22.1661C13.7925 25.8897 10.7026 28.9124 6.89623 28.9124C3.08987 28.9124 0 25.8897 0 22.1661V6.74621C0 3.02265 3.08987 0 6.89623 0H22.659C26.4654 0 29.5553 3.02265 29.5553 6.74621C29.5553 10.4698 26.4654 13.4924 22.659 13.4924H13.7925Z" fill="#034AFD"/>
<path opacity="0.85" fill-rule="evenodd" clip-rule="evenodd" d="M19.7036 19.2747V27.9484C19.7036 31.6719 16.6137 34.6946 12.8074 34.6946C9.001 34.6946 5.91113 31.6719 5.91113 27.9484V12.5285C5.91113 8.8049 9.001 5.78223 12.8074 5.78223H28.5702C32.3765 5.78223 35.4664 8.8049 35.4664 12.5285C35.4664 16.252 32.3765 19.2747 28.5702 19.2747H19.7036Z" fill="#1DD195"/>
</svg>
